<?xml version="1.0" encoding="UTF-8" standalone="no" ?>
<!DOCTYPE svg PUBLIC "-//W3C//DTD SVG 1.1//EN" "http://www.w3.org/Graphics/SVG/1.1/DTD/svg11.dtd">
<svg xmlns="http://www.w3.org/2000/svg" xmlns:xlink="http://www.w3.org/1999/xlink" version="1.1" width="1080" height="1080" viewBox="0 0 1080 1080" xml:space="preserve">
<desc>Created with Fabric.js 5.2.4</desc>
<defs>
</defs>
<g transform="matrix(1 0 0 1 540 540)" id="19c30b6c-8a51-4a30-ae78-645ebcc39258"  >
</g>
<g transform="matrix(1 0 0 1 540 540)" id="06cdab96-f33a-4d8b-885b-391c694a4dc7"  >
<rect style="stroke: none; stroke-width: 1; stroke-dasharray: none; stroke-linecap: butt; stroke-dashoffset: 0; stroke-linejoin: miter; stroke-miterlimit: 4; fill: rgb(255,255,255); fill-rule: nonzero; opacity: 1;" vector-effect="non-scaling-stroke"  x="-540" y="-540" rx="0" ry="0" width="1080" height="1080" />
</g>
<g transform="matrix(30.15 0 0 30.15 541.8 541.8)"  >
<path style="stroke: rgb(0,0,0); stroke-width: 0; stroke-dasharray: none; stroke-linecap: butt; stroke-dashoffset: 0; stroke-linejoin: miter; stroke-miterlimit: 4; fill: none; fill-rule: nonzero; opacity: 1;" vector-effect="non-scaling-stroke"  transform=" translate(-12, -12)" d="M 0 0 L 24 0 L 24 24 L 0 24 z" stroke-linecap="round" />
</g>
<g transform="matrix(30.15 0 0 30.15 554.4 546.72)"  >
<path style="stroke: rgb(0,0,0); stroke-width: 0; stroke-dasharray: none; stroke-linecap: butt; stroke-dashoffset: 0; stroke-linejoin: miter; stroke-miterlimit: 4; fill: rgb(0,0,0); fill-rule: nonzero; opacity: 1;" vector-effect="non-scaling-stroke"  transform=" translate(-12.43, -12.18)" d="M 16.33 13.5 C 18.01732644836679 12.173915346769062 19.001758673474626 10.1460587032885 19 7.999999999999999 L 21 8 C 21.002064306294997 10.860483299893989 19.64227455966016 13.551099494354947 17.337999999999997 15.246000000000002 L 19.866 19.624000000000002 C 20.418258672927674 20.580560619987427 20.090536319679863 21.803699238939632 19.134 22.356 L 15.607 16.248 C 14.469657632597984 16.745564313522944 13.241416627231933 17.001632302443173 12 17 C 10.758583372768065 17.001632302443173 9.530342367402016 16.745564313522944 8.393 16.248000000000005 L 4.8660000000000005 22.356 C 3.9094636803201355 21.803699238939632 3.581741327072326 20.580560619987427 4.134 19.624000000000002 L 9.197 10.854000000000003 C 8.168817687978754 9.843065848143517 7.763959851435383 8.357182775088685 8.13720335131761 6.964402815461605 C 8.510446851199838 5.571622855834524 9.604077085915282 4.4873114225656066 10.999999999999998 4.126000000000001 L 11 2 L 13 2 L 13 4.1259999999999994 C 14.395922914084716 4.487311422565604 15.489553148800159 5.571622855834519 15.862796648682387 6.964402815461599 C 16.236040148564616 8.35718277508868 15.831182312021246 9.84306584814351 14.803000000000003 10.853999999999997 L 16.33 13.5 z M 14.6 14.502 L 13.072 11.855 C 12.371249499180493 12.049526526878699 11.630750500819506 12.049526526878697 10.93 11.855 L 9.402 14.502 C 10.206 14.823 11.081999999999999 15 12.001 15 C 12.918999999999999 15 13.796 14.823 14.6 14.502 z M 12 10 C 13.104569499661586 10 14 9.104569499661586 14 8 C 14 6.8954305003384135 13.104569499661586 6 12 6 C 10.895430500338414 6 10 6.8954305003384135 10 8 C 10 9.104569499661586 10.895430500338414 10 12 10 z" stroke-linecap="round" />
</g>
</svg>